# xmcd
#
# Track frame offsets: 
#        150
#        20980
#        35662
#        51132
#        65187
#        83110
#        100975
#        123247
#        137570
#        156137
#
# Disc length: 2334 seconds
#
# Revision: 3
# Processed by: cddbd v1.5PL3 Copyright (c) Steve Scherf et al.
# Submitted via: ExactAudioCopy v0.95a3
#
DISCID=8b091c0a
DTITLE=Dan Seals - In A Quiet Room II
DYEAR=1995
DGENRE=Country
TTITLE0=L.O.A. (Love On Arrival)
TTITLE1=God Must Be A Cowboy At Heart
TTITLE2=Nights Are Forever Without You
TTITLE3=My Baby's Got Good Timing
TTITLE4=Addicted
TTITLE5=We Are One
TTITLE6=Still Reelin' (From Those Rock and Roll Days)
TTITLE7=Three Time Loser
TTITLE8=My Old Yellow Car
TTITLE9=Wood
EXTD=
EXTT0=
EXTT1=
EXTT2=
EXTT3=
EXTT4=
EXTT5=
EXTT6=
EXTT7=
EXTT8=
EXTT9=
PLAYORDER=
